# xmcd
#
# Track frame offsets: 
#        150
#        16473
#        26590
#        40003
#        49663
#        68873
#        84713
#        100870
#        115678
#        129303
#        139843
#        152038
#        168275
#        185235
#        195240
#        210045
#        224888
#        238493
#        252305
#        264383
#
# Disc length: 3694 seconds
#
# Revision: 2
# Processed by: cddbd v1.5.2PL0 Copyright (c) Steve Scherf et al.
# Submitted via: ExactAudioCopy v0.95b3
#
DISCID=1b0e6c14
DTITLE=Ray Charles - Greatest Country and Western Hits [DCC DZS-040]
DYEAR=1900
DGENRE=country
TTITLE0=Your Cheating Heart
TTITLE1=Hey Good Lookin'
TTITLE2=Take These Chains From My Heart
TTITLE3=Don't Tell Me Your Troubles
TTITLE4=I Can't Stop Loving You
TTITLE5=Just A Little Lovin' (Will Go A Long Way)
TTITLE6=It Makes No Difference Now
TTITLE7=You Don't Know Me
TTITLE8=You Are My Sunshine
TTITLE9=I'll Never Stand In Your Way
TTITLE10=Someday (You'll Want Me To Want You)
TTITLE11=I Love You So Much It Hurts
TTITLE12=Careless Love
TTITLE13=Oh, Lonesome Me
TTITLE14=Hang Your Head In Shame
TTITLE15=Midnight
TTITLE16=No Letter Today
TTITLE17=Crying Time
TTITLE18=Together Agian
TTITLE19=Don't Let Her Know
EXTD=
EXTT0=
EXTT1=
EXTT2=
EXTT3=
EXTT4=
EXTT5=
EXTT6=
EXTT7=
EXTT8=
EXTT9=
EXTT10=
EXTT11=
EXTT12=
EXTT13=
EXTT14=
EXTT15=
EXTT16=
EXTT17=
EXTT18=
EXTT19=
PLAYORDER=
